M48
METRIC,LZ,000.000
;FILE_FORMAT=3:3
;TYPE=PLATED
;Layer: Drill PTH
;EasyEDA v6.4.20.6, 2021-08-11T14:47:25--4:00
;69257b7602d440f08016c76432e8c6ee,f06b2ae44ace4e68bcf10d52e37fd181,10
;Gerber Generator version 0.2
;Holesize 1 = 1.016 mm
T01C1.016
;Holesize 2 = 1.021 mm
T02C1.021
;Holesize 3 = 1.101 mm
T03C1.101
;Holesize 4 = 1.200 mm
T04C1.200
%
G05
G90
T01
X047244Y036449
X065024Y059309
X062484Y059309
X059944Y059309
X057404Y059309
X054864Y059309
X052324Y059309
X049784Y059309
X047244Y059309
X065024Y036449
X062484Y036449
X059944Y036449
X057404Y036449
X054864Y036449
X052324Y036449
X049784Y036449
T02
X033909Y047117
X033909Y044577
X033909Y042037
X033909Y039497
X033909Y036957
X026670Y062357
X026670Y059817
X026670Y057277
T03
X050546Y067691
X053086Y067691
X055626Y067691
X058166Y067691
X059563Y063500
X055626Y063500
T04
X046505Y064770
X033505Y064770
M30
