G04 Layer: BottomLayer*
G04 EasyEDA v6.4.20.6, 2021-08-11T14:47:25--4:00*
G04 69257b7602d440f08016c76432e8c6ee,f06b2ae44ace4e68bcf10d52e37fd181,10*
G04 Gerber Generator version 0.2*
G04 Scale: 100 percent, Rotated: No, Reflected: No *
G04 Dimensions in millimeters *
G04 leading zeros omitted , absolute positions ,4 integer and 5 decimal *
%FSLAX45Y45*%
%MOMM*%

%ADD10C,0.2540*%
%ADD11C,1.9050*%
%ADD12C,1.5748*%
%ADD13R,1.5748X1.5748*%
%ADD14R,1.7000X1.7000*%
%ADD15C,1.7000*%
%ADD16R,1.8288X3.2918*%

%LPD*%
D10*
X6248400Y6769100D02*
G01*
X6248400Y6769100D01*
X5816600Y6769100D01*
X6248400Y5930900D02*
G01*
X6248400Y6769100D01*
X3390900Y3949700D02*
G01*
X3987800Y4546600D01*
X4597400Y4546600D01*
X5486400Y5435600D01*
X5486400Y5930900D01*
X3390900Y4203700D02*
G01*
X4140200Y4953000D01*
X4533900Y4953000D01*
X5232400Y5651500D01*
X5232400Y5930900D01*
X3390900Y4457700D02*
G01*
X3365500Y4432300D01*
X1892300Y4432300D01*
X5562600Y6769100D02*
G01*
X5562600Y6350000D01*
X5956300Y6350000D02*
G01*
X5979944Y6326355D01*
X6248400Y6326355D01*
X6248400Y5930900D02*
G01*
X6248400Y4813300D01*
X6273800Y4787900D01*
X7315200Y4787900D01*
X7315200Y2971800D01*
X7086600Y2743200D01*
X2044700Y2743200D01*
X1917700Y2870200D01*
X1930400Y6235700D01*
X1943100Y6235700D01*
X2667000Y6235700D01*
D11*
G01*
X4650511Y6477000D03*
G01*
X3350488Y6477000D03*
D12*
G01*
X3390900Y4711700D03*
G01*
X3390900Y4457700D03*
G01*
X3390900Y4203700D03*
G01*
X3390900Y3949700D03*
D13*
G01*
X3390900Y3695700D03*
G36*
X4969598Y6854101D02*
G01*
X5139601Y6854101D01*
X5139601Y6684098D01*
X4969598Y6684098D01*
G37*
D15*
G01*
X5308600Y6769100D03*
G01*
X5562600Y6769100D03*
G01*
X5816600Y6769100D03*
D12*
G01*
X2667000Y6235700D03*
G01*
X2667000Y5981700D03*
D13*
G01*
X2667000Y5727700D03*
D16*
G01*
X4724400Y3644900D03*
G01*
X6502400Y5930900D03*
G01*
X6248400Y5930900D03*
G01*
X5994400Y5930900D03*
G01*
X5740400Y5930900D03*
G01*
X5486400Y5930900D03*
G01*
X5232400Y5930900D03*
G01*
X4978400Y5930900D03*
G01*
X4724400Y5930900D03*
G01*
X6502400Y3644900D03*
G01*
X6248400Y3644900D03*
G01*
X5994400Y3644900D03*
G01*
X5740400Y3644900D03*
G01*
X5486400Y3644900D03*
G01*
X5232400Y3644900D03*
G01*
X4978400Y3644900D03*
D14*
G01*
X5956300Y6350000D03*
G01*
X5562600Y6350000D03*
M02*
