G04 Layer: BottomSolderMaskLayer*
G04 EasyEDA v6.4.20.6, 2021-08-11T14:47:25--4:00*
G04 69257b7602d440f08016c76432e8c6ee,f06b2ae44ace4e68bcf10d52e37fd181,10*
G04 Gerber Generator version 0.2*
G04 Scale: 100 percent, Rotated: No, Reflected: No *
G04 Dimensions in millimeters *
G04 leading zeros omitted , absolute positions ,4 integer and 5 decimal *
%FSLAX45Y45*%
%MOMM*%

%ADD22C,2.0066*%
%ADD23C,1.6764*%
%ADD24R,1.6764X1.6764*%
%ADD26C,1.8016*%
%ADD27R,2.0320X3.4950*%

%LPD*%
D22*
G01*
X4650511Y6477000D03*
G01*
X3350488Y6477000D03*
D23*
G01*
X3390900Y4711700D03*
G01*
X3390900Y4457700D03*
G01*
X3390900Y4203700D03*
G01*
X3390900Y3949700D03*
D24*
G01*
X3390900Y3695700D03*
G36*
X4964429Y6678929D02*
G01*
X4964429Y6859270D01*
X5144770Y6859270D01*
X5144770Y6678929D01*
G37*
D26*
G01*
X5308600Y6769100D03*
G01*
X5562600Y6769100D03*
G01*
X5816600Y6769100D03*
D23*
G01*
X2667000Y6235700D03*
G01*
X2667000Y5981700D03*
D24*
G01*
X2667000Y5727700D03*
G36*
X4622800Y3470147D02*
G01*
X4622800Y3819652D01*
X4826000Y3819652D01*
X4826000Y3470147D01*
G37*
D27*
G01*
X6502400Y5930900D03*
G01*
X6248400Y5930900D03*
G01*
X5994400Y5930900D03*
G01*
X5740400Y5930900D03*
G01*
X5486400Y5930900D03*
G01*
X5232400Y5930900D03*
G01*
X4978400Y5930900D03*
G01*
X4724400Y5930900D03*
G36*
X6400800Y3470147D02*
G01*
X6400800Y3819652D01*
X6604000Y3819652D01*
X6604000Y3470147D01*
G37*
G36*
X6146800Y3470147D02*
G01*
X6146800Y3819652D01*
X6350000Y3819652D01*
X6350000Y3470147D01*
G37*
G36*
X5892800Y3470147D02*
G01*
X5892800Y3819652D01*
X6096000Y3819652D01*
X6096000Y3470147D01*
G37*
G36*
X5638800Y3470147D02*
G01*
X5638800Y3819652D01*
X5842000Y3819652D01*
X5842000Y3470147D01*
G37*
G36*
X5384800Y3470147D02*
G01*
X5384800Y3819652D01*
X5588000Y3819652D01*
X5588000Y3470147D01*
G37*
G36*
X5130800Y3470147D02*
G01*
X5130800Y3819652D01*
X5334000Y3819652D01*
X5334000Y3470147D01*
G37*
G36*
X4876800Y3470147D02*
G01*
X4876800Y3819652D01*
X5080000Y3819652D01*
X5080000Y3470147D01*
G37*
G36*
X5866129Y6259829D02*
G01*
X5866129Y6440170D01*
X6046470Y6440170D01*
X6046470Y6259829D01*
G37*
G36*
X5472429Y6259829D02*
G01*
X5472429Y6440170D01*
X5652770Y6440170D01*
X5652770Y6259829D01*
G37*
M02*
