G04 Layer: TopSilkLayer*
G04 EasyEDA v6.4.20.6, 2021-08-11T14:47:25--4:00*
G04 69257b7602d440f08016c76432e8c6ee,f06b2ae44ace4e68bcf10d52e37fd181,10*
G04 Gerber Generator version 0.2*
G04 Scale: 100 percent, Rotated: No, Reflected: No *
G04 Dimensions in millimeters *
G04 leading zeros omitted , absolute positions ,4 integer and 5 decimal *
%FSLAX45Y45*%
%MOMM*%

%ADD10C,0.2540*%
%ADD17C,0.2286*%
%ADD18C,0.2032*%
%ADD19C,0.2030*%
%ADD20C,0.1524*%
%ADD21C,0.1778*%

%LPD*%
D18*
X5764529Y2785363D02*
G01*
X5755386Y2803905D01*
X5736843Y2813050D01*
X5709158Y2813050D01*
X5690870Y2803905D01*
X5681472Y2794762D01*
X5672327Y2767076D01*
X5672327Y2739389D01*
X5681472Y2720847D01*
X5700013Y2711450D01*
X5727700Y2711450D01*
X5746241Y2720847D01*
X5755386Y2739389D01*
X5709158Y2813050D02*
G01*
X5690870Y2794762D01*
X5681472Y2767076D01*
X5681472Y2739389D01*
X5690870Y2720847D01*
X5700013Y2711450D01*
X5764529Y2813050D02*
G01*
X5755386Y2739389D01*
X5755386Y2720847D01*
X5773927Y2711450D01*
X5792470Y2711450D01*
X5810758Y2729992D01*
X5820156Y2757678D01*
X5820156Y2776220D01*
X5810758Y2803905D01*
X5801613Y2822447D01*
X5783072Y2840989D01*
X5764529Y2850134D01*
X5736843Y2859278D01*
X5709158Y2859278D01*
X5681472Y2850134D01*
X5662929Y2840989D01*
X5644641Y2822447D01*
X5635243Y2803905D01*
X5626100Y2776220D01*
X5626100Y2748534D01*
X5635243Y2720847D01*
X5644641Y2702305D01*
X5662929Y2683763D01*
X5681472Y2674620D01*
X5709158Y2665476D01*
X5736843Y2665476D01*
X5764529Y2674620D01*
X5783072Y2683763D01*
X5792470Y2693162D01*
X5773927Y2813050D02*
G01*
X5764529Y2739389D01*
X5764529Y2720847D01*
X5773927Y2711450D01*
X5982715Y2767076D02*
G01*
X5973318Y2785363D01*
X5945631Y2794762D01*
X5917945Y2794762D01*
X5890259Y2785363D01*
X5881115Y2767076D01*
X5890259Y2748534D01*
X5908802Y2739389D01*
X5955029Y2729992D01*
X5973318Y2720847D01*
X5982715Y2702305D01*
X5982715Y2693162D01*
X5973318Y2674620D01*
X5945631Y2665476D01*
X5917945Y2665476D01*
X5890259Y2674620D01*
X5881115Y2693162D01*
X6080506Y2859278D02*
G01*
X6089650Y2850134D01*
X6099047Y2859278D01*
X6089650Y2868676D01*
X6080506Y2859278D01*
X6089650Y2794762D02*
G01*
X6089650Y2637789D01*
X6080506Y2609850D01*
X6061963Y2600705D01*
X6043675Y2600705D01*
X6160008Y2859278D02*
G01*
X6160008Y2665476D01*
X6160008Y2757678D02*
G01*
X6187693Y2785363D01*
X6206236Y2794762D01*
X6233922Y2794762D01*
X6252209Y2785363D01*
X6261608Y2757678D01*
X6261608Y2665476D01*
X6322568Y2859278D02*
G01*
X6331711Y2850134D01*
X6341109Y2859278D01*
X6331711Y2868676D01*
X6322568Y2859278D01*
X6331711Y2794762D02*
G01*
X6331711Y2665476D01*
X6402070Y2859278D02*
G01*
X6402070Y2665476D01*
X6490715Y2859278D02*
G01*
X6490715Y2702305D01*
X6499859Y2674620D01*
X6518402Y2665476D01*
X6536690Y2665476D01*
X6463029Y2794762D02*
G01*
X6527545Y2794762D01*
X2362200Y3176778D02*
G01*
X2362200Y2982976D01*
X2491486Y3176778D02*
G01*
X2491486Y2982976D01*
X2362200Y3084576D02*
G01*
X2491486Y3084576D01*
X2598674Y3112262D02*
G01*
X2580131Y3102863D01*
X2561590Y3084576D01*
X2552445Y3056889D01*
X2552445Y3038347D01*
X2561590Y3010662D01*
X2580131Y2992120D01*
X2598674Y2982976D01*
X2626359Y2982976D01*
X2644902Y2992120D01*
X2663190Y3010662D01*
X2672588Y3038347D01*
X2672588Y3056889D01*
X2663190Y3084576D01*
X2644902Y3102863D01*
X2626359Y3112262D01*
X2598674Y3112262D01*
X2733547Y3112262D02*
G01*
X2733547Y2982976D01*
X2733547Y3075178D02*
G01*
X2761234Y3102863D01*
X2779775Y3112262D01*
X2807461Y3112262D01*
X2825750Y3102863D01*
X2835147Y3075178D01*
X2835147Y2982976D01*
X2835147Y3075178D02*
G01*
X2862834Y3102863D01*
X2881375Y3112262D01*
X2909061Y3112262D01*
X2927350Y3102863D01*
X2936747Y3075178D01*
X2936747Y2982976D01*
X2997708Y3056889D02*
G01*
X3108452Y3056889D01*
X3108452Y3075178D01*
X3099308Y3093720D01*
X3089909Y3102863D01*
X3071622Y3112262D01*
X3043936Y3112262D01*
X3025393Y3102863D01*
X3006852Y3084576D01*
X2997708Y3056889D01*
X2997708Y3038347D01*
X3006852Y3010662D01*
X3025393Y2992120D01*
X3043936Y2982976D01*
X3071622Y2982976D01*
X3089909Y2992120D01*
X3108452Y3010662D01*
X3385565Y3176778D02*
G01*
X3311652Y2982976D01*
X3385565Y3176778D02*
G01*
X3459479Y2982976D01*
X3339338Y3047492D02*
G01*
X3431793Y3047492D01*
X3520440Y3112262D02*
G01*
X3520440Y3019805D01*
X3529584Y2992120D01*
X3548125Y2982976D01*
X3575811Y2982976D01*
X3594354Y2992120D01*
X3622040Y3019805D01*
X3622040Y3112262D02*
G01*
X3622040Y2982976D01*
X3710686Y3176778D02*
G01*
X3710686Y3019805D01*
X3719829Y2992120D01*
X3738372Y2982976D01*
X3756913Y2982976D01*
X3683000Y3112262D02*
G01*
X3747770Y3112262D01*
X3864102Y3112262D02*
G01*
X3845559Y3102863D01*
X3827018Y3084576D01*
X3817874Y3056889D01*
X3817874Y3038347D01*
X3827018Y3010662D01*
X3845559Y2992120D01*
X3864102Y2982976D01*
X3891788Y2982976D01*
X3910329Y2992120D01*
X3928618Y3010662D01*
X3938015Y3038347D01*
X3938015Y3056889D01*
X3928618Y3084576D01*
X3910329Y3102863D01*
X3891788Y3112262D01*
X3864102Y3112262D01*
X3998975Y3112262D02*
G01*
X3998975Y2982976D01*
X3998975Y3075178D02*
G01*
X4026661Y3102863D01*
X4044950Y3112262D01*
X4072890Y3112262D01*
X4091177Y3102863D01*
X4100575Y3075178D01*
X4100575Y2982976D01*
X4100575Y3075178D02*
G01*
X4128261Y3102863D01*
X4146550Y3112262D01*
X4174490Y3112262D01*
X4192777Y3102863D01*
X4202175Y3075178D01*
X4202175Y2982976D01*
X4373879Y3112262D02*
G01*
X4373879Y2982976D01*
X4373879Y3084576D02*
G01*
X4355338Y3102863D01*
X4337050Y3112262D01*
X4309109Y3112262D01*
X4290822Y3102863D01*
X4272279Y3084576D01*
X4263136Y3056889D01*
X4263136Y3038347D01*
X4272279Y3010662D01*
X4290822Y2992120D01*
X4309109Y2982976D01*
X4337050Y2982976D01*
X4355338Y2992120D01*
X4373879Y3010662D01*
X4462525Y3176778D02*
G01*
X4462525Y3019805D01*
X4471670Y2992120D01*
X4490211Y2982976D01*
X4508754Y2982976D01*
X4434840Y3112262D02*
G01*
X4499609Y3112262D01*
X4569713Y3176778D02*
G01*
X4578858Y3167634D01*
X4588256Y3176778D01*
X4578858Y3186176D01*
X4569713Y3176778D01*
X4578858Y3112262D02*
G01*
X4578858Y2982976D01*
X4695190Y3112262D02*
G01*
X4676902Y3102863D01*
X4658359Y3084576D01*
X4649215Y3056889D01*
X4649215Y3038347D01*
X4658359Y3010662D01*
X4676902Y2992120D01*
X4695190Y2982976D01*
X4723129Y2982976D01*
X4741418Y2992120D01*
X4759959Y3010662D01*
X4769104Y3038347D01*
X4769104Y3056889D01*
X4759959Y3084576D01*
X4741418Y3102863D01*
X4723129Y3112262D01*
X4695190Y3112262D01*
X4830063Y3112262D02*
G01*
X4830063Y2982976D01*
X4830063Y3075178D02*
G01*
X4857750Y3102863D01*
X4876291Y3112262D01*
X4903977Y3112262D01*
X4922520Y3102863D01*
X4931663Y3075178D01*
X4931663Y2982976D01*
X5264150Y3149092D02*
G01*
X5245861Y3167634D01*
X5218175Y3176778D01*
X5181091Y3176778D01*
X5153406Y3167634D01*
X5134863Y3149092D01*
X5134863Y3130550D01*
X5144261Y3112262D01*
X5153406Y3102863D01*
X5171947Y3093720D01*
X5227320Y3075178D01*
X5245861Y3066034D01*
X5255006Y3056889D01*
X5264150Y3038347D01*
X5264150Y3010662D01*
X5245861Y2992120D01*
X5218175Y2982976D01*
X5181091Y2982976D01*
X5153406Y2992120D01*
X5134863Y3010662D01*
X5325109Y3056889D02*
G01*
X5436108Y3056889D01*
X5436108Y3075178D01*
X5426709Y3093720D01*
X5417565Y3102863D01*
X5399024Y3112262D01*
X5371338Y3112262D01*
X5353050Y3102863D01*
X5334508Y3084576D01*
X5325109Y3056889D01*
X5325109Y3038347D01*
X5334508Y3010662D01*
X5353050Y2992120D01*
X5371338Y2982976D01*
X5399024Y2982976D01*
X5417565Y2992120D01*
X5436108Y3010662D01*
X5497068Y3112262D02*
G01*
X5497068Y2982976D01*
X5497068Y3075178D02*
G01*
X5524754Y3102863D01*
X5543295Y3112262D01*
X5570981Y3112262D01*
X5589270Y3102863D01*
X5598668Y3075178D01*
X5598668Y2982976D01*
X5761227Y3084576D02*
G01*
X5751829Y3102863D01*
X5724143Y3112262D01*
X5696458Y3112262D01*
X5668772Y3102863D01*
X5659627Y3084576D01*
X5668772Y3066034D01*
X5687313Y3056889D01*
X5733541Y3047492D01*
X5751829Y3038347D01*
X5761227Y3019805D01*
X5761227Y3010662D01*
X5751829Y2992120D01*
X5724143Y2982976D01*
X5696458Y2982976D01*
X5668772Y2992120D01*
X5659627Y3010662D01*
X5868415Y3112262D02*
G01*
X5849874Y3102863D01*
X5831331Y3084576D01*
X5822188Y3056889D01*
X5822188Y3038347D01*
X5831331Y3010662D01*
X5849874Y2992120D01*
X5868415Y2982976D01*
X5896102Y2982976D01*
X5914390Y2992120D01*
X5932931Y3010662D01*
X5942329Y3038347D01*
X5942329Y3056889D01*
X5932931Y3084576D01*
X5914390Y3102863D01*
X5896102Y3112262D01*
X5868415Y3112262D01*
X6003290Y3112262D02*
G01*
X6003290Y2982976D01*
X6003290Y3056889D02*
G01*
X6012434Y3084576D01*
X6030975Y3102863D01*
X6049263Y3112262D01*
X6076950Y3112262D01*
X6280150Y3112262D02*
G01*
X6335775Y2982976D01*
X6391147Y3112262D02*
G01*
X6335775Y2982976D01*
X6452108Y3139947D02*
G01*
X6470650Y3149092D01*
X6498336Y3176778D01*
X6498336Y2982976D01*
X6568440Y3028950D02*
G01*
X6559295Y3019805D01*
X6568440Y3010662D01*
X6577584Y3019805D01*
X6568440Y3028950D01*
X6694170Y3176778D02*
G01*
X6666229Y3167634D01*
X6647941Y3139947D01*
X6638543Y3093720D01*
X6638543Y3066034D01*
X6647941Y3019805D01*
X6666229Y2992120D01*
X6694170Y2982976D01*
X6712458Y2982976D01*
X6740143Y2992120D01*
X6758686Y3019805D01*
X6767829Y3066034D01*
X6767829Y3093720D01*
X6758686Y3139947D01*
X6740143Y3167634D01*
X6712458Y3176778D01*
X6694170Y3176778D01*
X2991358Y4800092D02*
G01*
X2991358Y4633976D01*
X2908300Y4717034D02*
G01*
X3074670Y4717034D01*
X2989834Y4533900D02*
G01*
X2989834Y4367529D01*
X2953258Y5777992D02*
G01*
X2953258Y5611876D01*
X2870200Y5694934D02*
G01*
X3036570Y5694934D01*
X2964434Y6311900D02*
G01*
X2964434Y6145529D01*
X5061458Y7111492D02*
G01*
X5061458Y6945376D01*
X4978400Y7028434D02*
G01*
X5144770Y7028434D01*
X5918200Y7005065D02*
G01*
X5751829Y7005065D01*
D20*
X4025900Y6133084D02*
G01*
X4025900Y6242050D01*
X4025900Y6133084D02*
G01*
X3979163Y6133084D01*
X3963670Y6138163D01*
X3958336Y6143497D01*
X3953256Y6153912D01*
X3953256Y6164326D01*
X3958336Y6174739D01*
X3963670Y6179820D01*
X3979163Y6184900D01*
X4025900Y6184900D01*
X3989577Y6184900D02*
G01*
X3953256Y6242050D01*
X3918965Y6153912D02*
G01*
X3908552Y6148578D01*
X3892804Y6133084D01*
X3892804Y6242050D01*
X3123184Y4178300D02*
G01*
X3232150Y4178300D01*
X3123184Y4178300D02*
G01*
X3123184Y4225036D01*
X3128263Y4240529D01*
X3133597Y4245863D01*
X3144011Y4250944D01*
X3154425Y4250944D01*
X3164840Y4245863D01*
X3169920Y4240529D01*
X3175000Y4225036D01*
X3175000Y4178300D02*
G01*
X3175000Y4225036D01*
X3180334Y4240529D01*
X3185413Y4245863D01*
X3195827Y4250944D01*
X3211575Y4250944D01*
X3221990Y4245863D01*
X3227070Y4240529D01*
X3232150Y4225036D01*
X3232150Y4178300D01*
X3123184Y4285234D02*
G01*
X3232150Y4285234D01*
X3123184Y4358131D02*
G01*
X3232150Y4358131D01*
X3175000Y4285234D02*
G01*
X3175000Y4358131D01*
X3144011Y4392421D02*
G01*
X3138677Y4402836D01*
X3123184Y4418329D01*
X3232150Y4418329D01*
X3123184Y4525263D02*
G01*
X3232150Y4473447D01*
X3123184Y4452620D02*
G01*
X3123184Y4525263D01*
X3123184Y4622037D02*
G01*
X3123184Y4569968D01*
X3169920Y4564887D01*
X3164840Y4569968D01*
X3159506Y4585715D01*
X3159506Y4601210D01*
X3164840Y4616704D01*
X3175000Y4627118D01*
X3190747Y4632452D01*
X3201161Y4632452D01*
X3216656Y4627118D01*
X3227070Y4616704D01*
X3232150Y4601210D01*
X3232150Y4585715D01*
X3227070Y4569968D01*
X3221990Y4564887D01*
X3211575Y4559554D01*
X3123184Y4697729D02*
G01*
X3128263Y4682236D01*
X3144011Y4671821D01*
X3169920Y4666742D01*
X3185413Y4666742D01*
X3211575Y4671821D01*
X3227070Y4682236D01*
X3232150Y4697729D01*
X3232150Y4708144D01*
X3227070Y4723892D01*
X3211575Y4734305D01*
X3185413Y4739386D01*
X3169920Y4739386D01*
X3144011Y4734305D01*
X3128263Y4723892D01*
X3123184Y4708144D01*
X3123184Y4697729D01*
X5410200Y7036815D02*
G01*
X5410200Y6927850D01*
X5410200Y7036815D02*
G01*
X5446522Y7036815D01*
X5462270Y7031736D01*
X5472429Y7021321D01*
X5477763Y7010908D01*
X5482843Y6995160D01*
X5482843Y6969252D01*
X5477763Y6953758D01*
X5472429Y6943344D01*
X5462270Y6932929D01*
X5446522Y6927850D01*
X5410200Y6927850D01*
X5517134Y7036815D02*
G01*
X5517134Y6927850D01*
X5590031Y7036815D02*
G01*
X5590031Y6927850D01*
X5517134Y6985000D02*
G01*
X5590031Y6985000D01*
X5660643Y7036815D02*
G01*
X5660643Y6927850D01*
X5624322Y7036815D02*
G01*
X5696965Y7036815D01*
X2399284Y5956300D02*
G01*
X2508250Y5956300D01*
X2399284Y5956300D02*
G01*
X2399284Y6003036D01*
X2404363Y6018529D01*
X2409697Y6023863D01*
X2420111Y6028944D01*
X2435606Y6028944D01*
X2446020Y6023863D01*
X2451100Y6018529D01*
X2456434Y6003036D01*
X2456434Y5956300D01*
X2399284Y6063234D02*
G01*
X2508250Y6063234D01*
X2399284Y6097523D02*
G01*
X2508250Y6097523D01*
X2399284Y6097523D02*
G01*
X2399284Y6144260D01*
X2404363Y6160007D01*
X2409697Y6165087D01*
X2420111Y6170421D01*
X2430525Y6170421D01*
X2440940Y6165087D01*
X2446020Y6160007D01*
X2451100Y6144260D01*
X2451100Y6097523D01*
X2451100Y6134100D02*
G01*
X2508250Y6170421D01*
X3593084Y4787900D02*
G01*
X3671061Y4787900D01*
X3686556Y4792979D01*
X3696970Y4803394D01*
X3702050Y4819142D01*
X3702050Y4829555D01*
X3696970Y4845050D01*
X3686556Y4855463D01*
X3671061Y4860544D01*
X3593084Y4860544D01*
X3613911Y4894834D02*
G01*
X3608577Y4905247D01*
X3593084Y4920995D01*
X3702050Y4920995D01*
D21*
X3699256Y4787900D02*
G01*
X3808222Y4813807D01*
X3699256Y4839970D02*
G01*
X3808222Y4813807D01*
X3699256Y4839970D02*
G01*
X3808222Y4865878D01*
X3699256Y4891786D02*
G01*
X3808222Y4865878D01*
X3699256Y4926076D02*
G01*
X3808222Y4926076D01*
X3699256Y4926076D02*
G01*
X3699256Y4993639D01*
X3751072Y4926076D02*
G01*
X3751072Y4967731D01*
X3808222Y4926076D02*
G01*
X3808222Y4993639D01*
X3699256Y5027929D02*
G01*
X3808222Y5027929D01*
X3699256Y5027929D02*
G01*
X3808222Y5069586D01*
X3699256Y5110987D02*
G01*
X3808222Y5069586D01*
X3699256Y5110987D02*
G01*
X3808222Y5110987D01*
X3699256Y5176520D02*
G01*
X3704336Y5166105D01*
X3714750Y5155692D01*
X3725163Y5150612D01*
X3740911Y5145278D01*
X3766820Y5145278D01*
X3782313Y5150612D01*
X3792727Y5155692D01*
X3803141Y5166105D01*
X3808222Y5176520D01*
X3808222Y5197347D01*
X3803141Y5207762D01*
X3792727Y5218176D01*
X3782313Y5223255D01*
X3766820Y5228589D01*
X3740911Y5228589D01*
X3725163Y5223255D01*
X3714750Y5218176D01*
X3704336Y5207762D01*
X3699256Y5197347D01*
X3699256Y5176520D01*
X3714750Y5335523D02*
G01*
X3704336Y5325110D01*
X3699256Y5309615D01*
X3699256Y5288787D01*
X3704336Y5273039D01*
X3714750Y5262879D01*
X3725163Y5262879D01*
X3735577Y5267960D01*
X3740911Y5273039D01*
X3745991Y5283454D01*
X3756406Y5314695D01*
X3761486Y5325110D01*
X3766820Y5330189D01*
X3777234Y5335523D01*
X3792727Y5335523D01*
X3803141Y5325110D01*
X3808222Y5309615D01*
X3808222Y5288787D01*
X3803141Y5273039D01*
X3792727Y5262879D01*
D20*
X4690874Y3937000D02*
G01*
X4763772Y3937000D01*
X4690874Y3937000D02*
G01*
X4690874Y3968242D01*
X4694430Y3978655D01*
X4697986Y3981957D01*
X4704844Y3985513D01*
X4711702Y3985513D01*
X4718560Y3981957D01*
X4722116Y3978655D01*
X4725672Y3968242D01*
X4725672Y3937000D01*
X4725672Y3961129D02*
G01*
X4763772Y3985513D01*
X4701288Y4056887D02*
G01*
X4694430Y4050029D01*
X4690874Y4039615D01*
X4690874Y4025645D01*
X4694430Y4015231D01*
X4701288Y4008373D01*
X4708400Y4008373D01*
X4715258Y4011929D01*
X4718560Y4015231D01*
X4722116Y4022089D01*
X4728974Y4042918D01*
X4732530Y4050029D01*
X4736086Y4053331D01*
X4742944Y4056887D01*
X4753358Y4056887D01*
X4760216Y4050029D01*
X4763772Y4039615D01*
X4763772Y4025645D01*
X4760216Y4015231D01*
X4753358Y4008373D01*
X4690874Y4103878D02*
G01*
X4763772Y4103878D01*
X4690874Y4079747D02*
G01*
X4690874Y4128262D01*
X4732530Y4151121D02*
G01*
X4732530Y4213352D01*
X4690874Y4236212D02*
G01*
X4763772Y4236212D01*
X4690874Y4236212D02*
G01*
X4690874Y4267454D01*
X4694430Y4277868D01*
X4697986Y4281170D01*
X4704844Y4284726D01*
X4711702Y4284726D01*
X4718560Y4281170D01*
X4722116Y4277868D01*
X4725672Y4267454D01*
X4725672Y4236212D01*
X4725672Y4260595D02*
G01*
X4763772Y4284726D01*
X4725672Y4345686D02*
G01*
X4718560Y4342129D01*
X4715258Y4331970D01*
X4715258Y4321555D01*
X4718560Y4311142D01*
X4725672Y4307586D01*
X4732530Y4311142D01*
X4736086Y4318000D01*
X4739388Y4335271D01*
X4742944Y4342129D01*
X4749802Y4345686D01*
X4753358Y4345686D01*
X4760216Y4342129D01*
X4763772Y4331970D01*
X4763772Y4321555D01*
X4760216Y4311142D01*
X4753358Y4307586D01*
X4690874Y4378960D02*
G01*
X4749802Y4378960D01*
X4760216Y4382515D01*
X4763772Y4389373D01*
X4763772Y4396231D01*
X4715258Y4368545D02*
G01*
X4715258Y4392929D01*
X4936743Y3951986D02*
G01*
X5009641Y3924300D01*
X4936743Y3951986D02*
G01*
X5009641Y3979671D01*
X4985258Y3934713D02*
G01*
X4985258Y3969257D01*
X4936743Y4023360D02*
G01*
X4940300Y4012945D01*
X4950713Y4006087D01*
X4967986Y4002531D01*
X4978400Y4002531D01*
X4995672Y4006087D01*
X5006086Y4012945D01*
X5009641Y4023360D01*
X5009641Y4030218D01*
X5006086Y4040631D01*
X4995672Y4047489D01*
X4978400Y4051045D01*
X4967986Y4051045D01*
X4950713Y4047489D01*
X4940300Y4040631D01*
X4936743Y4030218D01*
X4936743Y4023360D01*
X4978400Y4073905D02*
G01*
X4978400Y4136389D01*
X4936743Y4186936D02*
G01*
X5009641Y4159250D01*
X4936743Y4186936D02*
G01*
X5009641Y4214621D01*
X4985258Y4169410D02*
G01*
X4985258Y4204207D01*
X4936743Y4258310D02*
G01*
X4940300Y4247895D01*
X4950713Y4240784D01*
X4967986Y4237481D01*
X4978400Y4237481D01*
X4995672Y4240784D01*
X5006086Y4247895D01*
X5009641Y4258310D01*
X5009641Y4265168D01*
X5006086Y4275581D01*
X4995672Y4282439D01*
X4978400Y4285995D01*
X4967986Y4285995D01*
X4950713Y4282439D01*
X4940300Y4275581D01*
X4936743Y4265168D01*
X4936743Y4258310D01*
X5190743Y3924300D02*
G01*
X5263641Y3924300D01*
X5190743Y3924300D02*
G01*
X5190743Y3948429D01*
X5194300Y3958844D01*
X5201158Y3965955D01*
X5208270Y3969257D01*
X5218429Y3972813D01*
X5235956Y3972813D01*
X5246370Y3969257D01*
X5253227Y3965955D01*
X5260086Y3958844D01*
X5263641Y3948429D01*
X5263641Y3924300D01*
X5190743Y4016502D02*
G01*
X5194300Y4006087D01*
X5204713Y3999229D01*
X5221986Y3995673D01*
X5232400Y3995673D01*
X5249672Y3999229D01*
X5260086Y4006087D01*
X5263641Y4016502D01*
X5263641Y4023360D01*
X5260086Y4033773D01*
X5249672Y4040631D01*
X5232400Y4044187D01*
X5221986Y4044187D01*
X5204713Y4040631D01*
X5194300Y4033773D01*
X5190743Y4023360D01*
X5190743Y4016502D01*
X5232400Y4067047D02*
G01*
X5232400Y4129278D01*
X5190743Y4152137D02*
G01*
X5263641Y4152137D01*
X5190743Y4152137D02*
G01*
X5190743Y4176521D01*
X5194300Y4186936D01*
X5201158Y4193794D01*
X5208270Y4197350D01*
X5218429Y4200652D01*
X5235956Y4200652D01*
X5246370Y4197350D01*
X5253227Y4193794D01*
X5260086Y4186936D01*
X5263641Y4176521D01*
X5263641Y4152137D01*
X5204713Y4223512D02*
G01*
X5201158Y4230370D01*
X5190743Y4240784D01*
X5263641Y4240784D01*
X5201158Y4305300D02*
G01*
X5194300Y4301744D01*
X5190743Y4291329D01*
X5190743Y4284471D01*
X5194300Y4274057D01*
X5204713Y4267200D01*
X5221986Y4263644D01*
X5239258Y4263644D01*
X5253227Y4267200D01*
X5260086Y4274057D01*
X5263641Y4284471D01*
X5263641Y4288028D01*
X5260086Y4298442D01*
X5253227Y4305300D01*
X5242813Y4308855D01*
X5239258Y4308855D01*
X5228843Y4305300D01*
X5221986Y4298442D01*
X5218429Y4288028D01*
X5218429Y4284471D01*
X5221986Y4274057D01*
X5228843Y4267200D01*
X5239258Y4263644D01*
X5444743Y3924300D02*
G01*
X5517641Y3924300D01*
X5444743Y3924300D02*
G01*
X5444743Y3948429D01*
X5448300Y3958844D01*
X5455158Y3965955D01*
X5462270Y3969257D01*
X5472429Y3972813D01*
X5489956Y3972813D01*
X5500370Y3969257D01*
X5507227Y3965955D01*
X5514086Y3958844D01*
X5517641Y3948429D01*
X5517641Y3924300D01*
X5444743Y4037329D02*
G01*
X5444743Y4002531D01*
X5475986Y3999229D01*
X5472429Y4002531D01*
X5469127Y4012945D01*
X5469127Y4023360D01*
X5472429Y4033773D01*
X5479541Y4040631D01*
X5489956Y4044187D01*
X5496813Y4044187D01*
X5507227Y4040631D01*
X5514086Y4033773D01*
X5517641Y4023360D01*
X5517641Y4012945D01*
X5514086Y4002531D01*
X5510529Y3999229D01*
X5503672Y3995673D01*
X5486400Y4067047D02*
G01*
X5486400Y4129278D01*
X5444743Y4152137D02*
G01*
X5517641Y4152137D01*
X5444743Y4152137D02*
G01*
X5444743Y4176521D01*
X5448300Y4186936D01*
X5455158Y4193794D01*
X5462270Y4197350D01*
X5472429Y4200652D01*
X5489956Y4200652D01*
X5500370Y4197350D01*
X5507227Y4193794D01*
X5514086Y4186936D01*
X5517641Y4176521D01*
X5517641Y4152137D01*
X5458713Y4223512D02*
G01*
X5455158Y4230370D01*
X5444743Y4240784D01*
X5517641Y4240784D01*
X5444743Y4298442D02*
G01*
X5493258Y4263644D01*
X5493258Y4315713D01*
X5444743Y4298442D02*
G01*
X5517641Y4298442D01*
X5698743Y3924300D02*
G01*
X5771641Y3924300D01*
X5698743Y3924300D02*
G01*
X5698743Y3948429D01*
X5702300Y3958844D01*
X5709158Y3965955D01*
X5716270Y3969257D01*
X5726429Y3972813D01*
X5743956Y3972813D01*
X5754370Y3969257D01*
X5761227Y3965955D01*
X5768086Y3958844D01*
X5771641Y3948429D01*
X5771641Y3924300D01*
X5709158Y4037329D02*
G01*
X5702300Y4033773D01*
X5698743Y4023360D01*
X5698743Y4016502D01*
X5702300Y4006087D01*
X5712713Y3999229D01*
X5729986Y3995673D01*
X5747258Y3995673D01*
X5761227Y3999229D01*
X5768086Y4006087D01*
X5771641Y4016502D01*
X5771641Y4019804D01*
X5768086Y4030218D01*
X5761227Y4037329D01*
X5750813Y4040631D01*
X5747258Y4040631D01*
X5736843Y4037329D01*
X5729986Y4030218D01*
X5726429Y4019804D01*
X5726429Y4016502D01*
X5729986Y4006087D01*
X5736843Y3999229D01*
X5747258Y3995673D01*
X5740400Y4063492D02*
G01*
X5740400Y4125976D01*
X5698743Y4148836D02*
G01*
X5771641Y4148836D01*
X5698743Y4148836D02*
G01*
X5698743Y4172965D01*
X5702300Y4183379D01*
X5709158Y4190237D01*
X5716270Y4193794D01*
X5726429Y4197350D01*
X5743956Y4197350D01*
X5754370Y4193794D01*
X5761227Y4190237D01*
X5768086Y4183379D01*
X5771641Y4172965D01*
X5771641Y4148836D01*
X5712713Y4220210D02*
G01*
X5709158Y4227068D01*
X5698743Y4237481D01*
X5771641Y4237481D01*
X5716270Y4263644D02*
G01*
X5712713Y4263644D01*
X5705856Y4267200D01*
X5702300Y4270755D01*
X5698743Y4277613D01*
X5698743Y4291329D01*
X5702300Y4298442D01*
X5705856Y4301744D01*
X5712713Y4305300D01*
X5719572Y4305300D01*
X5726429Y4301744D01*
X5736843Y4294886D01*
X5771641Y4260342D01*
X5771641Y4308855D01*
X5952743Y3924300D02*
G01*
X6025641Y3924300D01*
X5952743Y3924300D02*
G01*
X5952743Y3948429D01*
X5956300Y3958844D01*
X5963158Y3965955D01*
X5970270Y3969257D01*
X5980429Y3972813D01*
X5997956Y3972813D01*
X6008370Y3969257D01*
X6015227Y3965955D01*
X6022086Y3958844D01*
X6025641Y3948429D01*
X6025641Y3924300D01*
X5952743Y4044187D02*
G01*
X6025641Y4009389D01*
X5952743Y3995673D02*
G01*
X5952743Y4044187D01*
X5994400Y4067047D02*
G01*
X5994400Y4129278D01*
X5952743Y4152137D02*
G01*
X6025641Y4152137D01*
X5952743Y4152137D02*
G01*
X5952743Y4176521D01*
X5956300Y4186936D01*
X5963158Y4193794D01*
X5970270Y4197350D01*
X5980429Y4200652D01*
X5997956Y4200652D01*
X6008370Y4197350D01*
X6015227Y4193794D01*
X6022086Y4186936D01*
X6025641Y4176521D01*
X6025641Y4152137D01*
X5966713Y4223512D02*
G01*
X5963158Y4230370D01*
X5952743Y4240784D01*
X6025641Y4240784D01*
X5952743Y4270755D02*
G01*
X5952743Y4308855D01*
X5980429Y4288028D01*
X5980429Y4298442D01*
X5983986Y4305300D01*
X5987541Y4308855D01*
X5997956Y4312157D01*
X6004813Y4312157D01*
X6015227Y4308855D01*
X6022086Y4301744D01*
X6025641Y4291329D01*
X6025641Y4281170D01*
X6022086Y4270755D01*
X6018529Y4267200D01*
X6011672Y4263644D01*
X6206743Y3924300D02*
G01*
X6279641Y3924300D01*
X6206743Y3924300D02*
G01*
X6206743Y3948429D01*
X6210300Y3958844D01*
X6217158Y3965955D01*
X6224270Y3969257D01*
X6234429Y3972813D01*
X6251956Y3972813D01*
X6262370Y3969257D01*
X6269227Y3965955D01*
X6276086Y3958844D01*
X6279641Y3948429D01*
X6279641Y3924300D01*
X6206743Y4012945D02*
G01*
X6210300Y4002531D01*
X6217158Y3999229D01*
X6224270Y3999229D01*
X6231127Y4002531D01*
X6234429Y4009389D01*
X6237986Y4023360D01*
X6241541Y4033773D01*
X6248400Y4040631D01*
X6255258Y4044187D01*
X6265672Y4044187D01*
X6272529Y4040631D01*
X6276086Y4037329D01*
X6279641Y4026915D01*
X6279641Y4012945D01*
X6276086Y4002531D01*
X6272529Y3999229D01*
X6265672Y3995673D01*
X6255258Y3995673D01*
X6248400Y3999229D01*
X6241541Y4006087D01*
X6237986Y4016502D01*
X6234429Y4030218D01*
X6231127Y4037329D01*
X6224270Y4040631D01*
X6217158Y4040631D01*
X6210300Y4037329D01*
X6206743Y4026915D01*
X6206743Y4012945D01*
X6248400Y4067047D02*
G01*
X6248400Y4129278D01*
X6206743Y4152137D02*
G01*
X6279641Y4152137D01*
X6206743Y4152137D02*
G01*
X6206743Y4176521D01*
X6210300Y4186936D01*
X6217158Y4193794D01*
X6224270Y4197350D01*
X6234429Y4200652D01*
X6251956Y4200652D01*
X6262370Y4197350D01*
X6269227Y4193794D01*
X6276086Y4186936D01*
X6279641Y4176521D01*
X6279641Y4152137D01*
X6220713Y4223512D02*
G01*
X6217158Y4230370D01*
X6206743Y4240784D01*
X6279641Y4240784D01*
X6206743Y4305300D02*
G01*
X6206743Y4270755D01*
X6237986Y4267200D01*
X6234429Y4270755D01*
X6231127Y4281170D01*
X6231127Y4291329D01*
X6234429Y4301744D01*
X6241541Y4308855D01*
X6251956Y4312157D01*
X6258813Y4312157D01*
X6269227Y4308855D01*
X6276086Y4301744D01*
X6279641Y4291329D01*
X6279641Y4281170D01*
X6276086Y4270755D01*
X6272529Y4267200D01*
X6265672Y4263644D01*
X6468869Y3918457D02*
G01*
X6468869Y3956557D01*
X6496555Y3935729D01*
X6496555Y3946144D01*
X6500111Y3953255D01*
X6503667Y3956557D01*
X6514081Y3960113D01*
X6520939Y3960113D01*
X6531353Y3956557D01*
X6538211Y3949700D01*
X6541767Y3939286D01*
X6541767Y3928871D01*
X6538211Y3918457D01*
X6534655Y3915155D01*
X6527797Y3911600D01*
X6468869Y3982973D02*
G01*
X6541767Y4010660D01*
X6468869Y4038345D02*
G01*
X6541767Y4010660D01*
X6468869Y4068063D02*
G01*
X6468869Y4106163D01*
X6496555Y4085589D01*
X6496555Y4095750D01*
X6500111Y4102862D01*
X6503667Y4106163D01*
X6514081Y4109720D01*
X6520939Y4109720D01*
X6531353Y4106163D01*
X6538211Y4099305D01*
X6541767Y4088892D01*
X6541767Y4078478D01*
X6538211Y4068063D01*
X6534655Y4064762D01*
X6527797Y4061205D01*
X6468872Y5553455D02*
G01*
X6468872Y5518657D01*
X6500113Y5515355D01*
X6496558Y5518657D01*
X6493256Y5529071D01*
X6493256Y5539486D01*
X6496558Y5549900D01*
X6503670Y5556757D01*
X6514084Y5560313D01*
X6520941Y5560313D01*
X6531356Y5556757D01*
X6538213Y5549900D01*
X6541770Y5539486D01*
X6541770Y5529071D01*
X6538213Y5518657D01*
X6534658Y5515355D01*
X6527800Y5511800D01*
X6468872Y5583173D02*
G01*
X6541770Y5610860D01*
X6468872Y5638545D02*
G01*
X6541770Y5610860D01*
X6232400Y5335270D02*
G01*
X6225288Y5331713D01*
X6218430Y5324855D01*
X6214874Y5317744D01*
X6214874Y5304028D01*
X6218430Y5297170D01*
X6225288Y5290057D01*
X6232400Y5286755D01*
X6242560Y5283200D01*
X6260086Y5283200D01*
X6270500Y5286755D01*
X6277358Y5290057D01*
X6284216Y5297170D01*
X6287772Y5304028D01*
X6287772Y5317744D01*
X6284216Y5324855D01*
X6277358Y5331713D01*
X6270500Y5335270D01*
X6260086Y5335270D01*
X6260086Y5317744D02*
G01*
X6260086Y5335270D01*
X6256530Y5358129D02*
G01*
X6256530Y5420360D01*
X6232400Y5495289D02*
G01*
X6225288Y5491734D01*
X6218430Y5484876D01*
X6214874Y5477763D01*
X6214874Y5464047D01*
X6218430Y5457189D01*
X6225288Y5450078D01*
X6232400Y5446776D01*
X6242560Y5443220D01*
X6260086Y5443220D01*
X6270500Y5446776D01*
X6277358Y5450078D01*
X6284216Y5457189D01*
X6287772Y5464047D01*
X6287772Y5477763D01*
X6284216Y5484876D01*
X6277358Y5491734D01*
X6270500Y5495289D01*
X6260086Y5495289D01*
X6260086Y5477763D02*
G01*
X6260086Y5495289D01*
X6214874Y5518150D02*
G01*
X6287772Y5518150D01*
X6214874Y5518150D02*
G01*
X6287772Y5566410D01*
X6214874Y5566410D02*
G01*
X6287772Y5566410D01*
X6214874Y5589270D02*
G01*
X6287772Y5589270D01*
X6214874Y5589270D02*
G01*
X6214874Y5613654D01*
X6218430Y5624068D01*
X6225288Y5630926D01*
X6232400Y5634481D01*
X6242560Y5637784D01*
X6260086Y5637784D01*
X6270500Y5634481D01*
X6277358Y5630926D01*
X6284216Y5624068D01*
X6287772Y5613654D01*
X6287772Y5589270D01*
X5952743Y5295900D02*
G01*
X6025641Y5295900D01*
X5952743Y5295900D02*
G01*
X5952743Y5320029D01*
X5956300Y5330444D01*
X5963158Y5337555D01*
X5970270Y5340857D01*
X5980429Y5344413D01*
X5997956Y5344413D01*
X6008370Y5340857D01*
X6015227Y5337555D01*
X6022086Y5330444D01*
X6025641Y5320029D01*
X6025641Y5295900D01*
X5970270Y5370829D02*
G01*
X5966713Y5370829D01*
X5959856Y5374131D01*
X5956300Y5377687D01*
X5952743Y5384545D01*
X5952743Y5398515D01*
X5956300Y5405373D01*
X5959856Y5408929D01*
X5966713Y5412231D01*
X5973572Y5412231D01*
X5980429Y5408929D01*
X5990843Y5401818D01*
X6025641Y5367273D01*
X6025641Y5415787D01*
X5994400Y5438647D02*
G01*
X5994400Y5500878D01*
X5952743Y5523737D02*
G01*
X6025641Y5523737D01*
X5952743Y5523737D02*
G01*
X5952743Y5548121D01*
X5956300Y5558536D01*
X5963158Y5565394D01*
X5970270Y5568950D01*
X5980429Y5572252D01*
X5997956Y5572252D01*
X6008370Y5568950D01*
X6015227Y5565394D01*
X6022086Y5558536D01*
X6025641Y5548121D01*
X6025641Y5523737D01*
X5952743Y5629910D02*
G01*
X6001258Y5595112D01*
X6001258Y5647181D01*
X5952743Y5629910D02*
G01*
X6025641Y5629910D01*
X5698743Y5295900D02*
G01*
X5771641Y5295900D01*
X5698743Y5295900D02*
G01*
X5698743Y5320029D01*
X5702300Y5330444D01*
X5709158Y5337555D01*
X5716270Y5340857D01*
X5726429Y5344413D01*
X5743956Y5344413D01*
X5754370Y5340857D01*
X5761227Y5337555D01*
X5768086Y5330444D01*
X5771641Y5320029D01*
X5771641Y5295900D01*
X5698743Y5388102D02*
G01*
X5702300Y5377687D01*
X5712713Y5370829D01*
X5729986Y5367273D01*
X5740400Y5367273D01*
X5757672Y5370829D01*
X5768086Y5377687D01*
X5771641Y5388102D01*
X5771641Y5394960D01*
X5768086Y5405373D01*
X5757672Y5412231D01*
X5740400Y5415787D01*
X5729986Y5415787D01*
X5712713Y5412231D01*
X5702300Y5405373D01*
X5698743Y5394960D01*
X5698743Y5388102D01*
X5740400Y5438647D02*
G01*
X5740400Y5500878D01*
X5698743Y5523737D02*
G01*
X5771641Y5523737D01*
X5698743Y5523737D02*
G01*
X5698743Y5548121D01*
X5702300Y5558536D01*
X5709158Y5565394D01*
X5716270Y5568950D01*
X5726429Y5572252D01*
X5743956Y5572252D01*
X5754370Y5568950D01*
X5761227Y5565394D01*
X5768086Y5558536D01*
X5771641Y5548121D01*
X5771641Y5523737D01*
X5698743Y5601970D02*
G01*
X5698743Y5640070D01*
X5726429Y5619495D01*
X5726429Y5629910D01*
X5729986Y5636768D01*
X5733541Y5640070D01*
X5743956Y5643626D01*
X5750813Y5643626D01*
X5761227Y5640070D01*
X5768086Y5633212D01*
X5771641Y5622797D01*
X5771641Y5612384D01*
X5768086Y5601970D01*
X5764529Y5598668D01*
X5757672Y5595112D01*
X5444743Y5295900D02*
G01*
X5517641Y5295900D01*
X5444743Y5295900D02*
G01*
X5444743Y5320029D01*
X5448300Y5330444D01*
X5455158Y5337555D01*
X5462270Y5340857D01*
X5472429Y5344413D01*
X5489956Y5344413D01*
X5500370Y5340857D01*
X5507227Y5337555D01*
X5514086Y5330444D01*
X5517641Y5320029D01*
X5517641Y5295900D01*
X5444743Y5401818D02*
G01*
X5493258Y5367273D01*
X5493258Y5419089D01*
X5444743Y5401818D02*
G01*
X5517641Y5401818D01*
X5486400Y5441950D02*
G01*
X5486400Y5504434D01*
X5444743Y5527294D02*
G01*
X5517641Y5527294D01*
X5444743Y5527294D02*
G01*
X5444743Y5551423D01*
X5448300Y5561837D01*
X5455158Y5568950D01*
X5462270Y5572252D01*
X5472429Y5575807D01*
X5489956Y5575807D01*
X5500370Y5572252D01*
X5507227Y5568950D01*
X5514086Y5561837D01*
X5517641Y5551423D01*
X5517641Y5527294D01*
X5462270Y5601970D02*
G01*
X5458713Y5601970D01*
X5451856Y5605526D01*
X5448300Y5609081D01*
X5444743Y5615939D01*
X5444743Y5629910D01*
X5448300Y5636768D01*
X5451856Y5640070D01*
X5458713Y5643626D01*
X5465572Y5643626D01*
X5472429Y5640070D01*
X5482843Y5633212D01*
X5517641Y5598668D01*
X5517641Y5647181D01*
X5190743Y5295900D02*
G01*
X5263641Y5295900D01*
X5190743Y5295900D02*
G01*
X5190743Y5320029D01*
X5194300Y5330444D01*
X5201158Y5337555D01*
X5208270Y5340857D01*
X5218429Y5344413D01*
X5235956Y5344413D01*
X5246370Y5340857D01*
X5253227Y5337555D01*
X5260086Y5330444D01*
X5263641Y5320029D01*
X5263641Y5295900D01*
X5190743Y5408929D02*
G01*
X5190743Y5374131D01*
X5221986Y5370829D01*
X5218429Y5374131D01*
X5215127Y5384545D01*
X5215127Y5394960D01*
X5218429Y5405373D01*
X5225541Y5412231D01*
X5235956Y5415787D01*
X5242813Y5415787D01*
X5253227Y5412231D01*
X5260086Y5405373D01*
X5263641Y5394960D01*
X5263641Y5384545D01*
X5260086Y5374131D01*
X5256529Y5370829D01*
X5249672Y5367273D01*
X5232400Y5438647D02*
G01*
X5232400Y5500878D01*
X5190743Y5523737D02*
G01*
X5263641Y5523737D01*
X5190743Y5523737D02*
G01*
X5190743Y5548121D01*
X5194300Y5558536D01*
X5201158Y5565394D01*
X5208270Y5568950D01*
X5218429Y5572252D01*
X5235956Y5572252D01*
X5246370Y5568950D01*
X5253227Y5565394D01*
X5260086Y5558536D01*
X5263641Y5548121D01*
X5263641Y5523737D01*
X5204713Y5595112D02*
G01*
X5201158Y5601970D01*
X5190743Y5612384D01*
X5263641Y5612384D01*
X4936743Y5295900D02*
G01*
X5009641Y5295900D01*
X4936743Y5295900D02*
G01*
X4936743Y5320029D01*
X4940300Y5330444D01*
X4947158Y5337555D01*
X4954270Y5340857D01*
X4964429Y5344413D01*
X4981956Y5344413D01*
X4992370Y5340857D01*
X4999227Y5337555D01*
X5006086Y5330444D01*
X5009641Y5320029D01*
X5009641Y5295900D01*
X4936743Y5374131D02*
G01*
X4936743Y5412231D01*
X4964429Y5391404D01*
X4964429Y5401818D01*
X4967986Y5408929D01*
X4971541Y5412231D01*
X4981956Y5415787D01*
X4988813Y5415787D01*
X4999227Y5412231D01*
X5006086Y5405373D01*
X5009641Y5394960D01*
X5009641Y5384545D01*
X5006086Y5374131D01*
X5002529Y5370829D01*
X4995672Y5367273D01*
X4978400Y5438647D02*
G01*
X4978400Y5500878D01*
X4936743Y5523737D02*
G01*
X5009641Y5523737D01*
X4936743Y5523737D02*
G01*
X4936743Y5554979D01*
X4940300Y5565394D01*
X4943856Y5568950D01*
X4950713Y5572252D01*
X4957572Y5572252D01*
X4964429Y5568950D01*
X4967986Y5565394D01*
X4971541Y5554979D01*
X4971541Y5523737D01*
X4971541Y5548121D02*
G01*
X5009641Y5572252D01*
X4936743Y5595112D02*
G01*
X5009641Y5643626D01*
X4936743Y5643626D02*
G01*
X5009641Y5595112D01*
X4682743Y5295900D02*
G01*
X4755641Y5295900D01*
X4682743Y5295900D02*
G01*
X4682743Y5320029D01*
X4686300Y5330444D01*
X4693158Y5337555D01*
X4700270Y5340857D01*
X4710429Y5344413D01*
X4727956Y5344413D01*
X4738370Y5340857D01*
X4745227Y5337555D01*
X4752086Y5330444D01*
X4755641Y5320029D01*
X4755641Y5295900D01*
X4696713Y5367273D02*
G01*
X4693158Y5374131D01*
X4682743Y5384545D01*
X4755641Y5384545D01*
X4724400Y5407405D02*
G01*
X4724400Y5469889D01*
X4682743Y5516879D02*
G01*
X4755641Y5516879D01*
X4682743Y5492750D02*
G01*
X4682743Y5541010D01*
X4682743Y5563870D02*
G01*
X4755641Y5612384D01*
X4682743Y5612384D02*
G01*
X4755641Y5563870D01*
X4157472Y4038600D02*
G01*
X4291075Y4070350D01*
X4157472Y4102354D02*
G01*
X4291075Y4070350D01*
X4157472Y4102354D02*
G01*
X4291075Y4134104D01*
X4157472Y4165854D02*
G01*
X4291075Y4134104D01*
X4157472Y4207763D02*
G01*
X4291075Y4207763D01*
X4157472Y4207763D02*
G01*
X4157472Y4290568D01*
X4221225Y4207763D02*
G01*
X4221225Y4258818D01*
X4291075Y4207763D02*
G01*
X4291075Y4290568D01*
X4157472Y4332478D02*
G01*
X4291075Y4332478D01*
X4157472Y4332478D02*
G01*
X4291075Y4383531D01*
X4157472Y4434331D02*
G01*
X4291075Y4383531D01*
X4157472Y4434331D02*
G01*
X4291075Y4434331D01*
X4157472Y4514595D02*
G01*
X4163822Y4501895D01*
X4176775Y4489195D01*
X4189475Y4482845D01*
X4208525Y4476495D01*
X4240275Y4476495D01*
X4259325Y4482845D01*
X4272025Y4489195D01*
X4284725Y4501895D01*
X4291075Y4514595D01*
X4291075Y4539995D01*
X4284725Y4552695D01*
X4272025Y4565395D01*
X4259325Y4571745D01*
X4240275Y4578350D01*
X4208525Y4578350D01*
X4189475Y4571745D01*
X4176775Y4565395D01*
X4163822Y4552695D01*
X4157472Y4539995D01*
X4157472Y4514595D01*
X4176775Y4709413D02*
G01*
X4163822Y4696713D01*
X4157472Y4677410D01*
X4157472Y4652010D01*
X4163822Y4632960D01*
X4176775Y4620260D01*
X4189475Y4620260D01*
X4202175Y4626610D01*
X4208525Y4632960D01*
X4214875Y4645660D01*
X4227575Y4683760D01*
X4233925Y4696713D01*
X4240275Y4703063D01*
X4252975Y4709413D01*
X4272025Y4709413D01*
X4284725Y4696713D01*
X4291075Y4677410D01*
X4291075Y4652010D01*
X4284725Y4632960D01*
X4272025Y4620260D01*
X4157472Y4849368D02*
G01*
X4291075Y4849368D01*
X4157472Y4849368D02*
G01*
X4157472Y4893818D01*
X4163822Y4912868D01*
X4176775Y4925568D01*
X4189475Y4932171D01*
X4208525Y4938521D01*
X4240275Y4938521D01*
X4259325Y4932171D01*
X4272025Y4925568D01*
X4284725Y4912868D01*
X4291075Y4893818D01*
X4291075Y4849368D01*
X4183125Y4980431D02*
G01*
X4176775Y4993131D01*
X4157472Y5012181D01*
X4291075Y5012181D01*
X4157472Y5152136D02*
G01*
X4291075Y5152136D01*
X4157472Y5152136D02*
G01*
X4291075Y5203189D01*
X4157472Y5253989D02*
G01*
X4291075Y5203189D01*
X4157472Y5253989D02*
G01*
X4291075Y5253989D01*
X4157472Y5296154D02*
G01*
X4291075Y5296154D01*
X4157472Y5338063D02*
G01*
X4291075Y5338063D01*
X4157472Y5338063D02*
G01*
X4291075Y5427218D01*
X4157472Y5427218D02*
G01*
X4291075Y5427218D01*
X4157472Y5469128D02*
G01*
X4291075Y5469128D01*
X7112000Y4508500D02*
G01*
X7164070Y4508500D01*
X7174484Y4512055D01*
X7181341Y4518913D01*
X7184897Y4529328D01*
X7184897Y4536186D01*
X7181341Y4546600D01*
X7174484Y4553457D01*
X7164070Y4557013D01*
X7112000Y4557013D01*
X7122413Y4628387D02*
G01*
X7115556Y4621529D01*
X7112000Y4611115D01*
X7112000Y4597145D01*
X7115556Y4586731D01*
X7122413Y4579873D01*
X7129525Y4579873D01*
X7136384Y4583429D01*
X7139686Y4586731D01*
X7143241Y4593589D01*
X7150100Y4614418D01*
X7153656Y4621529D01*
X7157211Y4624831D01*
X7164070Y4628387D01*
X7174484Y4628387D01*
X7181341Y4621529D01*
X7184897Y4611115D01*
X7184897Y4597145D01*
X7181341Y4586731D01*
X7174484Y4579873D01*
X7112000Y4651247D02*
G01*
X7184897Y4651247D01*
X7112000Y4651247D02*
G01*
X7112000Y4682489D01*
X7115556Y4692650D01*
X7119111Y4696205D01*
X7125970Y4699762D01*
X7132827Y4699762D01*
X7139686Y4696205D01*
X7143241Y4692650D01*
X7146797Y4682489D01*
X7146797Y4651247D02*
G01*
X7146797Y4682489D01*
X7150100Y4692650D01*
X7153656Y4696205D01*
X7160513Y4699762D01*
X7170927Y4699762D01*
X7177786Y4696205D01*
X7181341Y4692650D01*
X7184897Y4682489D01*
X7184897Y4651247D01*
X7112000Y4775962D02*
G01*
X7184897Y4775962D01*
X7112000Y4775962D02*
G01*
X7184897Y4803647D01*
X7112000Y4831334D02*
G01*
X7184897Y4803647D01*
X7112000Y4831334D02*
G01*
X7184897Y4831334D01*
X7112000Y4854194D02*
G01*
X7184897Y4854194D01*
X7129525Y4928870D02*
G01*
X7122413Y4925568D01*
X7115556Y4918710D01*
X7112000Y4911597D01*
X7112000Y4897881D01*
X7115556Y4890770D01*
X7122413Y4883912D01*
X7129525Y4880610D01*
X7139686Y4877054D01*
X7157211Y4877054D01*
X7167625Y4880610D01*
X7174484Y4883912D01*
X7181341Y4890770D01*
X7184897Y4897881D01*
X7184897Y4911597D01*
X7181341Y4918710D01*
X7174484Y4925568D01*
X7167625Y4928870D01*
X7112000Y4951729D02*
G01*
X7184897Y4951729D01*
X7112000Y4951729D02*
G01*
X7112000Y4982971D01*
X7115556Y4993386D01*
X7119111Y4996942D01*
X7125970Y5000244D01*
X7132827Y5000244D01*
X7139686Y4996942D01*
X7143241Y4993386D01*
X7146797Y4982971D01*
X7146797Y4951729D01*
X7146797Y4976113D02*
G01*
X7184897Y5000244D01*
X7112000Y5043931D02*
G01*
X7115556Y5037073D01*
X7122413Y5030215D01*
X7129525Y5026660D01*
X7139686Y5023104D01*
X7157211Y5023104D01*
X7167625Y5026660D01*
X7174484Y5030215D01*
X7181341Y5037073D01*
X7184897Y5043931D01*
X7184897Y5057902D01*
X7181341Y5064760D01*
X7174484Y5071618D01*
X7167625Y5075173D01*
X7157211Y5078729D01*
X7139686Y5078729D01*
X7129525Y5075173D01*
X7122413Y5071618D01*
X7115556Y5064760D01*
X7112000Y5057902D01*
X7112000Y5043931D01*
X7176770Y3759200D02*
G01*
X7176770Y3832097D01*
X7176770Y3759200D02*
G01*
X7145527Y3759200D01*
X7135113Y3762755D01*
X7131811Y3766312D01*
X7128256Y3773170D01*
X7128256Y3780028D01*
X7131811Y3786886D01*
X7135113Y3790442D01*
X7145527Y3793997D01*
X7176770Y3793997D01*
X7152640Y3793997D02*
G01*
X7128256Y3832097D01*
X7105395Y3759200D02*
G01*
X7105395Y3832097D01*
X7105395Y3759200D02*
G01*
X7060438Y3759200D01*
X7105395Y3793997D02*
G01*
X7077709Y3793997D01*
X7105395Y3832097D02*
G01*
X7060438Y3832097D01*
X6989063Y3769613D02*
G01*
X6995922Y3762755D01*
X7006336Y3759200D01*
X7020306Y3759200D01*
X7030720Y3762755D01*
X7037577Y3769613D01*
X7037577Y3776726D01*
X7034022Y3783584D01*
X7030720Y3786886D01*
X7023608Y3790442D01*
X7002779Y3797300D01*
X6995922Y3800855D01*
X6992620Y3804412D01*
X6989063Y3811270D01*
X6989063Y3821684D01*
X6995922Y3828542D01*
X7006336Y3832097D01*
X7020306Y3832097D01*
X7030720Y3828542D01*
X7037577Y3821684D01*
X6966204Y3759200D02*
G01*
X6966204Y3832097D01*
X6966204Y3759200D02*
G01*
X6921245Y3759200D01*
X6966204Y3793997D02*
G01*
X6938518Y3793997D01*
X6966204Y3832097D02*
G01*
X6921245Y3832097D01*
X6874002Y3759200D02*
G01*
X6874002Y3832097D01*
X6898386Y3759200D02*
G01*
X6849872Y3759200D01*
X6034277Y6581647D02*
G01*
X6028943Y6592062D01*
X6018529Y6602476D01*
X6008370Y6607555D01*
X5987541Y6607555D01*
X5977127Y6602476D01*
X5966713Y6592062D01*
X5961379Y6581647D01*
X5956300Y6565900D01*
X5956300Y6539992D01*
X5961379Y6524497D01*
X5966713Y6514084D01*
X5977127Y6503670D01*
X5987541Y6498589D01*
X6008370Y6498589D01*
X6018529Y6503670D01*
X6028943Y6514084D01*
X6034277Y6524497D01*
X6034277Y6539992D01*
X6008370Y6539992D02*
G01*
X6034277Y6539992D01*
X6068568Y6586728D02*
G01*
X6078981Y6592062D01*
X6094475Y6607555D01*
X6094475Y6498589D01*
X5640577Y6581647D02*
G01*
X5635243Y6592062D01*
X5624829Y6602476D01*
X5614670Y6607555D01*
X5593841Y6607555D01*
X5583427Y6602476D01*
X5573013Y6592062D01*
X5567679Y6581647D01*
X5562600Y6565900D01*
X5562600Y6539992D01*
X5567679Y6524497D01*
X5573013Y6514084D01*
X5583427Y6503670D01*
X5593841Y6498589D01*
X5614670Y6498589D01*
X5624829Y6503670D01*
X5635243Y6514084D01*
X5640577Y6524497D01*
X5640577Y6539992D01*
X5614670Y6539992D02*
G01*
X5640577Y6539992D01*
X5679947Y6581647D02*
G01*
X5679947Y6586728D01*
X5685281Y6597142D01*
X5690361Y6602476D01*
X5700775Y6607555D01*
X5721604Y6607555D01*
X5732018Y6602476D01*
X5737097Y6597142D01*
X5742431Y6586728D01*
X5742431Y6576313D01*
X5737097Y6565900D01*
X5726684Y6550405D01*
X5674868Y6498589D01*
X5747511Y6498589D01*
D17*
X4317974Y6654774D02*
G01*
X4317974Y6299174D01*
D10*
X4450486Y6296990D02*
G01*
X3550488Y6296990D01*
X3550488Y6656984D01*
X4450486Y6656984D01*
X4450486Y6296990D01*
X3263900Y4838700D02*
G01*
X3263900Y3759200D01*
X3263900Y3827543D02*
G01*
X3517900Y3827543D01*
X3263900Y3759200D02*
G01*
X3263900Y3568700D01*
X3517900Y3568700D01*
X3517900Y4838700D01*
X3263900Y4838700D01*
D18*
X5943600Y6896100D02*
G01*
X5943600Y6642100D01*
X4927600Y6642100D01*
X4927600Y6896100D01*
X5118100Y6896100D01*
D19*
X5943600Y6896100D02*
G01*
X5118100Y6896100D01*
D10*
X2540000Y5600700D02*
G01*
X2540000Y6362700D01*
X2794000Y6362700D01*
X2794000Y5600700D02*
G01*
X2794000Y6362700D01*
X2540000Y5600700D02*
G01*
X2794000Y5600700D01*
X2540000Y5859543D02*
G01*
X2794000Y5859543D01*
X4220972Y3517900D02*
G01*
X6633972Y3517900D01*
X4220972Y6057900D02*
G01*
X7395972Y6057900D01*
X7395972Y3644900D01*
X6633972Y3517900D02*
G01*
X6760972Y3644900D01*
X7395972Y3644900D01*
X6756400Y4025900D02*
G01*
X6756400Y3644900D01*
X7264400Y3644900D01*
X7264400Y4025900D01*
X6756400Y4025900D01*
X3962400Y3771900D02*
G01*
X3962400Y5803900D01*
D18*
X6083300Y6223000D02*
G01*
X5829300Y6223000D01*
X5829300Y6477000D01*
X6083300Y6477000D01*
X6083300Y6286500D01*
D19*
X6083300Y6223000D02*
G01*
X6083300Y6286500D01*
D18*
X5689600Y6223000D02*
G01*
X5435600Y6223000D01*
X5435600Y6477000D01*
X5689600Y6477000D01*
X5689600Y6286500D01*
D19*
X5689600Y6223000D02*
G01*
X5689600Y6286500D01*
D10*
G75*
G01*
X3962403Y5803897D02*
G02*
X4216403Y6057897I253999J1D01*
G75*
G01*
X4216403Y3517903D02*
G02*
X3962403Y3771903I-1J253999D01*
M02*
